# xmcd CD database file
#
# Track frame offsets:
#	150
#	16535
#	33905
#	47905
#	57560
#	71050
#	92145
#	105882
#	122830
#	135670
#
# Disc length: 2007 seconds
#
# Revision: 2
# Processed by: cddbd v1.4PL0 Copyright (c) Steve Scherf et al.
# Submitted via: CDex 1.40Release
#
DISCID=8007d50a
DTITLE=Waylon Jennings - Waylon's Greatest Hits Vol. 2
DYEAR=1984
DGENRE=Country
TTITLE0=Looking For Suzanne
TTITLE1=The Conversation
TTITLE2=Waltz Me To Heaven
TTITLE3=Theme From The Dukes of Hazzard
TTITLE4=Don't You Think This Outlaw Bit's Done Got Out Of Hand
TTITLE5=I Ain't Living Long Like This
TTITLE6=Come With Me
TTITLE7=America
TTITLE8=Shine
TTITLE9=Women Do Know How To Carry On
EXTD=YEAR: 1984 ID3G: 2
EXTT0=
EXTT1=
EXTT2=
EXTT3=
EXTT4=
EXTT5=
EXTT6=
EXTT7=
EXTT8=
EXTT9=
PLAYORDER=
